<svg width="116" height="26" viewBox="0 0 116 26" fill="none" xmlns="http://www.w3.org/2000/svg">
<path d="M29.6457 7.86716H32.428C35.2103 7.86716 37.1291 9.69004 37.1291 13.048C37.1291 16.1181 35.4981 18.2288 32.3321 18.2288H29.5498V7.86716H29.6457ZM30.797 17.2694H32.3321C34.7306 17.2694 35.9778 15.8303 35.9778 13.048C35.9778 9.97787 34.5387 8.82657 32.428 8.82657H30.797V17.2694Z" fill="#FF671F"/>
<path d="M37.9927 10.7454H39.048V12.1845C39.6237 11.1292 40.1993 10.5535 41.4465 10.5535V11.6089C40.1034 11.6089 39.4318 12.4723 38.9521 14.0074V18.2288H37.8967V10.7454H37.9927Z" fill="#FF671F"/>
<path d="M44.7085 7.86716H47.4908C50.2731 7.86716 52.1919 9.69004 52.1919 13.048C52.1919 16.1181 50.5609 18.2288 47.3948 18.2288H44.6125V7.86716H44.7085ZM45.8598 17.2694H47.3948C49.7934 17.2694 51.0406 15.8303 51.0406 13.048C51.0406 9.97787 49.6015 8.82657 47.4908 8.82657H45.8598V17.2694Z" fill="#FF671F"/>
<path d="M59.0037 16.6937C58.524 17.5572 57.8525 18.4207 56.1255 18.4207C54.4945 18.4207 52.8635 17.2694 52.8635 14.4871C52.8635 12.0886 54.1108 10.5535 55.9336 10.5535C57.4687 10.5535 58.8119 11.6089 58.8119 13.9115V14.583H53.9189C53.9189 16.214 54.8783 17.3653 56.1255 17.3653C57.0849 17.3653 57.7565 16.8856 58.2362 16.1181L59.0037 16.6937ZM57.7565 13.8155C57.7565 12.4723 57.0849 11.5129 55.9336 11.5129C54.6864 11.5129 54.0148 12.4723 53.9189 13.8155H57.7565Z" fill="#FF671F"/>
<path d="M61.3063 10.7454V11.8008C61.882 11.1292 62.6495 10.6495 63.513 10.6495C64.6643 10.6495 65.7196 11.2251 65.7196 12.8561V18.2288H64.6643V12.8561C64.6643 11.8967 64.1846 11.5129 63.417 11.5129C62.6495 11.5129 61.786 12.1845 61.3063 12.6642V18.2288H60.251V10.7454H61.3063Z" fill="#FF671F"/>
<path d="M68.4059 10.7454V11.8008C68.9816 11.1292 69.7491 10.6495 70.6126 10.6495C71.7639 10.6495 72.8192 11.2251 72.8192 12.8561V18.2288H71.7639V12.8561C71.7639 11.8967 71.2842 11.5129 70.5166 11.5129C69.7491 11.5129 68.8856 12.1845 68.4059 12.6642V18.2288H67.3506V10.7454H68.4059Z" fill="#FF671F"/>
<path d="M74.4502 10.7454H75.5055V18.2288H74.4502V10.7454Z" fill="#FF671F"/>
<path d="M77.5202 16.4059C77.9999 17.0775 78.7674 17.5572 79.6309 17.5572C80.7822 17.5572 81.2619 16.9816 81.2619 16.31C81.2619 14.3912 76.8486 15.4465 76.9446 12.6642C76.9446 11.3211 77.9999 10.6495 79.439 10.6495C80.3984 10.6495 81.4538 11.2251 82.0294 11.9926L81.2619 12.6642C80.6863 11.9926 80.1106 11.6089 79.3431 11.6089C78.4796 11.6089 77.9999 12.0886 77.9999 12.7602C77.9999 14.3912 82.3173 13.5277 82.3173 16.31C82.3173 17.7491 81.07 18.5166 79.7269 18.5166C78.5756 18.5166 77.4243 18.0369 76.7527 17.0775L77.5202 16.4059Z" fill="#FF671F"/>
<path d="M93.0627 13.2399V18.2288H92.1033V17.2694C91.5277 18.0369 90.5683 18.3247 89.417 18.3247C87.0184 18.3247 85.3875 16.5978 85.3875 12.952C85.3875 9.30629 87.1144 7.57935 89.417 7.57935C91.1439 7.57935 92.4871 8.44282 93.1587 10.6495L92.1033 10.8413C91.6236 9.21035 90.7601 8.53876 89.5129 8.53876C87.9779 8.53876 86.5387 9.59411 86.5387 12.952C86.5387 16.31 87.9779 17.3653 89.5129 17.3653C91.2399 17.3653 92.0074 16.31 92.0074 15.0627V14.1993H89.7048V13.2399H93.0627Z" fill="#FF671F"/>
<path d="M94.3101 10.7454H95.3654V12.1845C95.9411 11.1292 96.5167 10.5535 97.7639 10.5535V11.6089C96.4208 11.6089 95.7492 12.4723 95.2695 14.0074V18.2288H94.2141V10.7454H94.3101Z" fill="#FF671F"/>
<path d="M100.738 18.4207C98.7233 18.4207 97.668 16.6937 97.668 14.4871C97.668 12.2805 98.7233 10.5535 100.738 10.5535C102.753 10.5535 103.808 12.2805 103.808 14.4871C103.808 16.6937 102.753 18.4207 100.738 18.4207ZM100.738 11.5129C99.4908 11.5129 98.7233 12.5683 98.7233 14.4871C98.7233 16.4059 99.4908 17.4613 100.738 17.4613C101.985 17.4613 102.753 16.4059 102.753 14.4871C102.753 12.5683 101.985 11.5129 100.738 11.5129Z" fill="#FF671F"/>
<path d="M104.959 16.4059C105.439 17.0775 106.207 17.5572 107.07 17.5572C108.221 17.5572 108.701 16.9816 108.701 16.31C108.701 14.3912 104.288 15.4465 104.384 12.6642C104.384 11.3211 105.439 10.6495 106.878 10.6495C107.838 10.6495 108.893 11.2251 109.469 11.9926L108.701 12.6642C108.125 11.9926 107.55 11.6089 106.782 11.6089C105.919 11.6089 105.439 12.0886 105.439 12.7602C105.439 14.3912 109.756 13.5277 109.756 16.31C109.756 17.7491 108.509 18.5166 107.166 18.5166C106.015 18.5166 104.863 18.0369 104.192 17.0775L104.959 16.4059Z" fill="#FF671F"/>
<path d="M110.812 16.4059C111.292 17.0775 112.059 17.5572 112.923 17.5572C114.074 17.5572 114.554 16.9816 114.554 16.31C114.554 14.3912 110.14 15.4465 110.236 12.6642C110.236 11.3211 111.292 10.6495 112.731 10.6495C113.69 10.6495 114.746 11.2251 115.321 11.9926L114.554 12.6642C113.978 11.9926 113.402 11.6089 112.635 11.6089C111.771 11.6089 111.292 12.0886 111.292 12.7602C111.292 14.3912 115.609 13.5277 115.609 16.31C115.609 17.7491 114.362 18.5166 113.019 18.5166C111.867 18.5166 110.716 18.0369 110.044 17.0775L110.812 16.4059Z" fill="#FF671F"/>
<path d="M7.77133 16.31H9.69015V13.9114H12.0887V11.9926H9.69015V9.59409H7.77133V11.9926H5.3728V13.9114H7.77133V16.31Z" fill="#FF671F"/>
<path d="M0 26H4.70111C7.38745 26 9.5941 25.7122 10.9373 25.2325C12.4723 24.7528 13.9114 23.8893 15.3506 22.6421C18.1328 20.1476 19.476 16.9816 19.476 12.952C19.476 12.6642 19.476 12.2804 19.476 11.9926H14.2952V13.9114H17.4613V14.0074C17.2694 16.8856 16.0221 19.3801 14.0074 21.203C12.8561 22.2583 11.6089 23.0258 10.1697 23.5055C8.73063 23.9852 7.00369 24.1771 4.98893 24.1771H1.91882V1.72694H4.98893C8.92251 1.72694 11.9926 2.68635 14.0074 4.60517C15.4465 5.94834 16.5018 7.67528 17.0775 9.5941H19.1882C18.6125 7.09963 17.4613 5.08487 15.5424 3.35793C14.1993 2.20664 12.7601 1.34317 11.1292 0.767528C9.5941 0.287823 7.48339 0 4.79705 0H0V26Z" fill="#FF671F"/>
</svg>
