<svg width="18" height="19" viewBox="0 0 18 19" fill="none" xmlns="http://www.w3.org/2000/svg">
<path d="M15 9.5V17H3V9.5" stroke="#3A3D3F" stroke-width="1.08" stroke-linecap="round" stroke-linejoin="round"/>
<path d="M16.5 5.75H1.5V9.5H16.5V5.75Z" stroke="#3A3D3F" stroke-width="1.08" stroke-linecap="round" stroke-linejoin="round"/>
<path d="M9 17V5.75" stroke="#3A3D3F" stroke-width="1.08" stroke-linecap="round" stroke-linejoin="round"/>
<path d="M9 5.75H5.625C5.12772 5.75 4.65081 5.55246 4.29917 5.20082C3.94754 4.84919 3.75 4.37228 3.75 3.875C3.75 3.37772 3.94754 2.90081 4.29917 2.54917C4.65081 2.19754 5.12772 2 5.625 2C8.25 2 9 5.75 9 5.75Z" stroke="#3A3D3F" stroke-width="1.08" stroke-linecap="round" stroke-linejoin="round"/>
<path d="M9 5.75H12.375C12.8723 5.75 13.3492 5.55246 13.7008 5.20082C14.0525 4.84919 14.25 4.37228 14.25 3.875C14.25 3.37772 14.0525 2.90081 13.7008 2.54917C13.3492 2.19754 12.8723 2 12.375 2C9.75 2 9 5.75 9 5.75Z" stroke="#3A3D3F" stroke-width="1.08" stroke-linecap="round" stroke-linejoin="round"/>
</svg>
