<svg width="116" height="26" viewBox="0 0 116 26" fill="none" xmlns="http://www.w3.org/2000/svg">
<path d="M29.6467 7.86719H32.429C35.2113 7.86719 37.1301 9.69007 37.1301 13.048C37.1301 16.1181 35.4991 18.2288 32.3331 18.2288H29.5508V7.86719H29.6467ZM30.798 17.2694H32.3331C34.7316 17.2694 35.9788 15.8303 35.9788 13.048C35.9788 9.97789 34.5397 8.8266 32.429 8.8266H30.798V17.2694Z" fill="#FF671D"/>
<path d="M37.9944 10.7453H39.0497V12.1845C39.6254 11.1291 40.201 10.5535 41.4483 10.5535V11.6088C40.1051 11.6088 39.4335 12.4723 38.9538 14.0073V18.2287H37.8984V10.7453H37.9944Z" fill="#FF671D"/>
<path d="M44.7092 7.86719H47.4915C50.2738 7.86719 52.1926 9.69007 52.1926 13.048C52.1926 16.1181 50.5616 18.2288 47.3956 18.2288H44.6133V7.86719H44.7092ZM45.8605 17.2694H47.3956C49.7941 17.2694 51.0413 15.8303 51.0413 13.048C51.0413 9.97789 49.6022 8.8266 47.4915 8.8266H45.8605V17.2694Z" fill="#FF671D"/>
<path d="M59.0055 16.6937C58.5258 17.5572 57.8542 18.4206 56.1272 18.4206C54.4962 18.4206 52.8652 17.2693 52.8652 14.487C52.8652 12.0885 54.1125 10.5535 55.9353 10.5535C57.4704 10.5535 58.8136 11.6088 58.8136 13.9114V14.583H53.9206C53.9206 16.214 54.88 17.3653 56.1272 17.3653C57.0866 17.3653 57.7582 16.8856 58.2379 16.118L59.0055 16.6937ZM57.7582 13.8155C57.7582 12.4723 57.0866 11.5129 55.9353 11.5129C54.6881 11.5129 54.0165 12.4723 53.9206 13.8155H57.7582Z" fill="#FF671D"/>
<path d="M61.3073 10.7454V11.8007C61.883 11.1291 62.6505 10.6494 63.5139 10.6494C64.6652 10.6494 65.7206 11.2251 65.7206 12.8561V18.2287H64.6652V12.8561C64.6652 11.8966 64.1855 11.5129 63.418 11.5129C62.6505 11.5129 61.787 12.1845 61.3073 12.6642V18.2287H60.252V10.7454H61.3073Z" fill="#FF671D"/>
<path d="M68.4069 10.7454V11.8007C68.9826 11.1291 69.7501 10.6494 70.6136 10.6494C71.7648 10.6494 72.8202 11.2251 72.8202 12.8561V18.2287H71.7649V12.8561C71.7649 11.8966 71.2851 11.5129 70.5176 11.5129C69.7501 11.5129 68.8866 12.1845 68.4069 12.6642V18.2287H67.3516V10.7454H68.4069Z" fill="#FF671D"/>
<path d="M74.4512 10.7454H75.5065V18.2288H74.4512V10.7454Z" fill="#FF671D"/>
<path d="M77.5214 16.4059C78.0011 17.0775 78.7687 17.5572 79.6321 17.5572C80.7834 17.5572 81.2631 16.9815 81.2631 16.3099C81.2631 14.3911 76.8498 15.4465 76.9458 12.6642C76.9458 11.321 78.0011 10.6494 79.4403 10.6494C80.3997 10.6494 81.455 11.2251 82.0307 11.9926L81.2631 12.6642C80.6875 11.9926 80.1118 11.6088 79.3443 11.6088C78.4808 11.6088 78.0011 12.0885 78.0011 12.7601C78.0011 14.3911 82.3185 13.5276 82.3185 16.3099C82.3185 17.749 81.0712 18.5166 79.7281 18.5166C78.5768 18.5166 77.4255 18.0369 76.7539 17.0775L77.5214 16.4059Z" fill="#FF671D"/>
<path d="M93.0639 13.2399V18.2288H92.1045V17.2694C91.5289 18.0369 90.5695 18.3247 89.4182 18.3247C87.0197 18.3247 85.3887 16.5978 85.3887 12.952C85.3887 9.30628 87.1156 7.57935 89.4182 7.57935C91.1451 7.57935 92.4883 8.44281 93.1599 10.6495L92.1045 10.8413C91.6248 9.21034 90.7614 8.53875 89.5141 8.53875C87.9791 8.53875 86.54 9.59411 86.54 12.952C86.54 16.31 87.9791 17.3653 89.5141 17.3653C91.2411 17.3653 92.0086 16.31 92.0086 15.0627V14.1993H89.706V13.2399H93.0639Z" fill="#FF671D"/>
<path d="M94.3108 10.7453H95.3661V12.1845C95.9418 11.1291 96.5174 10.5535 97.7647 10.5535V11.6088C96.4215 11.6088 95.7499 12.4723 95.2702 14.0073V18.2287H94.2148V10.7453H94.3108Z" fill="#FF671D"/>
<path d="M100.738 18.4206C98.7233 18.4206 97.668 16.6937 97.668 14.487C97.668 12.2804 98.7233 10.5535 100.738 10.5535C102.753 10.5535 103.808 12.2804 103.808 14.487C103.808 16.6937 102.753 18.4206 100.738 18.4206ZM100.738 11.5129C99.4908 11.5129 98.7233 12.5682 98.7233 14.487C98.7233 16.4059 99.4908 17.4612 100.738 17.4612C101.985 17.4612 102.753 16.4059 102.753 14.487C102.753 12.5682 101.985 11.5129 100.738 11.5129Z" fill="#FF671D"/>
<path d="M104.961 16.4059C105.441 17.0775 106.208 17.5572 107.072 17.5572C108.223 17.5572 108.703 16.9815 108.703 16.3099C108.703 14.3911 104.289 15.4465 104.385 12.6642C104.385 11.321 105.441 10.6494 106.88 10.6494C107.839 10.6494 108.894 11.2251 109.47 11.9926L108.703 12.6642C108.127 11.9926 107.551 11.6088 106.784 11.6088C105.92 11.6088 105.441 12.0885 105.441 12.7601C105.441 14.3911 109.758 13.5276 109.758 16.3099C109.758 17.749 108.511 18.5166 107.168 18.5166C106.016 18.5166 104.865 18.0369 104.193 17.0775L104.961 16.4059Z" fill="#FF671D"/>
<path d="M110.812 16.4059C111.292 17.0775 112.06 17.5572 112.923 17.5572C114.074 17.5572 114.554 16.9815 114.554 16.3099C114.554 14.3911 110.141 15.4465 110.237 12.6642C110.237 11.321 111.292 10.6494 112.731 10.6494C113.691 10.6494 114.746 11.2251 115.322 11.9926L114.554 12.6642C113.979 11.9926 113.403 11.6088 112.635 11.6088C111.772 11.6088 111.292 12.0885 111.292 12.7601C111.292 14.3911 115.61 13.5276 115.61 16.3099C115.61 17.749 114.362 18.5166 113.019 18.5166C111.868 18.5166 110.717 18.0369 110.045 17.0775L110.812 16.4059Z" fill="#FF671D"/>
<path d="M7.77157 16.3099H9.69039V13.9113H12.0889V11.9925H9.69039V9.59399H7.77157V11.9925H5.37305V13.9113H7.77157V16.3099Z" fill="#FF671D"/>
<path d="M0 26H4.70111C7.38745 26 9.5941 25.7122 10.9373 25.2325C12.4723 24.7528 13.9114 23.8893 15.3506 22.6421C18.1328 20.1476 19.476 16.9816 19.476 12.952C19.476 12.6642 19.476 12.2804 19.476 11.9926H14.2952V13.9114H17.4613V14.0074C17.2694 16.8856 16.0221 19.3801 14.0074 21.203C12.8561 22.2583 11.6089 23.0258 10.1697 23.5055C8.73063 23.9852 7.00369 24.1771 4.98893 24.1771H1.91882V1.72694H4.98893C8.92251 1.72694 11.9926 2.68635 14.0074 4.60517C15.4465 5.94834 16.5018 7.67528 17.0775 9.5941H19.1882C18.6125 7.09963 17.4613 5.08487 15.5424 3.35793C14.1993 2.20664 12.7601 1.34317 11.1292 0.767528C9.5941 0.287823 7.48339 0 4.79705 0H0V26Z" fill="#FF671D"/>
</svg>
