<svg width="174" height="78" viewBox="0 0 174 78" fill="none" xmlns="http://www.w3.org/2000/svg">
<g filter="url(#filter0_ddd)">
<rect x="20" y="10" width="134" height="38" rx="19" fill="#C9522A"/>
<path d="M42.9434 27.0117C42.6855 25.3125 41.7363 24.4043 40.0371 24.4043C37.6289 24.4043 36.6973 26.2266 36.6973 28.8281C36.6973 31.3887 37.5996 33.1934 39.9492 33.1934C41.7246 33.1934 42.7441 32.1562 42.9785 30.4102L41.8008 30.2051C41.6484 31.3711 41.1035 32.0508 40.0078 32.0508C38.291 32.0508 37.9219 30.3926 37.9219 28.7754C37.9219 26.8242 38.4551 25.5469 40.0195 25.5469C41.1152 25.5469 41.625 26.1797 41.748 27.2285L42.9434 27.0117ZM44.7352 33H50.6649V31.8574H45.9364V24.5977H44.7352V33ZM58.0583 24.5977H51.8415V25.7402H54.3493V31.8574H51.8415V33H58.0583V31.8574H55.5505V25.7402H58.0583V24.5977ZM63.9576 24.5977V30.9668L61.4322 24.5977H59.8736V33H61.0748V26.625L63.5943 33H65.1587V24.5977H63.9576ZM73.1967 24.5977H66.9799V25.7402H69.4877V31.8574H66.9799V33H73.1967V31.8574H70.6889V25.7402H73.1967V24.5977ZM80.7893 27.0117C80.5315 25.3125 79.5823 24.4043 77.883 24.4043C75.4748 24.4043 74.5432 26.2266 74.5432 28.8281C74.5432 31.3887 75.4455 33.1934 77.7952 33.1934C79.5705 33.1934 80.5901 32.1562 80.8245 30.4102L79.6467 30.2051C79.4944 31.3711 78.9495 32.0508 77.8537 32.0508C76.137 32.0508 75.7678 30.3926 75.7678 28.7754C75.7678 26.8242 76.301 25.5469 77.8655 25.5469C78.9612 25.5469 79.4709 26.1797 79.594 27.2285L80.7893 27.0117ZM99.0763 28.716C99.0763 29.084 99.0323 29.444 98.9443 29.796C98.8643 30.148 98.7363 30.468 98.5603 30.756C98.3843 31.036 98.1683 31.264 97.9123 31.44C97.6563 31.608 97.3523 31.692 97.0003 31.692C96.6323 31.692 96.3403 31.588 96.1243 31.38C95.9163 31.164 95.7883 30.92 95.7403 30.648H95.6803C95.5363 30.944 95.3243 31.192 95.0443 31.392C94.7643 31.592 94.4123 31.692 93.9883 31.692C93.3803 31.692 92.9083 31.488 92.5723 31.08C92.2443 30.672 92.0803 30.132 92.0803 29.46C92.0803 28.932 92.1843 28.468 92.3923 28.068C92.6003 27.66 92.8923 27.34 93.2683 27.108C93.6523 26.876 94.1043 26.76 94.6243 26.76C94.9763 26.76 95.3203 26.792 95.6563 26.856C96.0003 26.912 96.2683 26.976 96.4603 27.048L96.3403 29.484C96.3323 29.628 96.3283 29.732 96.3283 29.796C96.3283 29.852 96.3283 29.892 96.3283 29.916C96.3283 30.332 96.4003 30.608 96.5443 30.744C96.6963 30.88 96.8723 30.948 97.0723 30.948C97.3203 30.948 97.5283 30.848 97.6963 30.648C97.8723 30.44 98.0043 30.168 98.0923 29.832C98.1883 29.488 98.2363 29.112 98.2363 28.704C98.2363 27.96 98.0843 27.332 97.7803 26.82C97.4843 26.3 97.0723 25.904 96.5443 25.632C96.0243 25.36 95.4323 25.224 94.7683 25.224C93.8563 25.224 93.0843 25.412 92.4523 25.788C91.8283 26.164 91.3523 26.684 91.0243 27.348C90.7043 28.004 90.5443 28.756 90.5443 29.604C90.5443 30.788 90.8563 31.696 91.4803 32.328C92.1043 32.96 93.0043 33.276 94.1803 33.276C94.6683 33.276 95.1323 33.22 95.5723 33.108C96.0203 33.004 96.4163 32.888 96.7603 32.76V33.576C96.4163 33.72 96.0283 33.836 95.5963 33.924C95.1723 34.02 94.7003 34.068 94.1803 34.068C93.2363 34.068 92.4283 33.892 91.7563 33.54C91.0843 33.188 90.5683 32.684 90.2083 32.028C89.8563 31.364 89.6803 30.568 89.6803 29.64C89.6803 28.896 89.7963 28.208 90.0283 27.576C90.2603 26.936 90.5963 26.384 91.0363 25.92C91.4763 25.448 92.0083 25.084 92.6323 24.828C93.2643 24.564 93.9763 24.432 94.7683 24.432C95.6003 24.432 96.3403 24.604 96.9883 24.948C97.6363 25.292 98.1443 25.784 98.5123 26.424C98.8883 27.064 99.0763 27.828 99.0763 28.716ZM93.0163 29.484C93.0163 29.996 93.1163 30.368 93.3163 30.6C93.5243 30.832 93.8003 30.948 94.1443 30.948C94.5923 30.948 94.9123 30.78 95.1043 30.444C95.3043 30.108 95.4203 29.672 95.4523 29.136L95.5243 27.636C95.4203 27.604 95.2883 27.576 95.1283 27.552C94.9683 27.528 94.8043 27.516 94.6363 27.516C94.2443 27.516 93.9283 27.612 93.6883 27.804C93.4483 27.996 93.2763 28.244 93.1723 28.548C93.0683 28.844 93.0163 29.156 93.0163 29.484ZM109.666 33V29.3496H112.548V33H113.75V24.5977H112.548V28.2012H109.666V24.5977H108.464V33H109.666ZM118.676 24.4043C116.321 24.4043 115.565 26.209 115.565 28.7988C115.565 31.3887 116.321 33.1934 118.676 33.1934C121.032 33.1934 121.788 31.3887 121.788 28.7988C121.788 26.209 121.032 24.4043 118.676 24.4043ZM118.676 25.5469C120.182 25.5469 120.563 26.9473 120.563 28.7988C120.563 30.6504 120.182 32.0508 118.676 32.0508C117.17 32.0508 116.79 30.6504 116.79 28.7988C116.79 26.9473 117.17 25.5469 118.676 25.5469ZM127.277 24.5977L126.251 30.5156L125.226 24.5977H123.158V33H124.365V25.9453L125.648 32.4141H126.849L128.138 25.9453V33H129.339V24.5977H127.277ZM136.867 25.7402V24.5977H131.172V33H136.867V31.8574H132.373V29.2559H136.498V28.1074H132.373V25.7402H136.867Z" fill="#FFFDFB"/>
</g>
<defs>
<filter id="filter0_ddd" x="0" y="0" width="174" height="78" filterUnits="userSpaceOnUse" color-interpolation-filters="sRGB">
<feFlood flood-opacity="0" result="BackgroundImageFix"/>
<feColorMatrix in="SourceAlpha" type="matrix" values="0 0 0 0 0 0 0 0 0 0 0 0 0 0 0 0 0 0 127 0"/>
<feOffset/>
<feGaussianBlur stdDeviation="0.5"/>
<feColorMatrix type="matrix" values="0 0 0 0 0 0 0 0 0 0 0 0 0 0 0 0 0 0 0.04 0"/>
<feBlend mode="normal" in2="BackgroundImageFix" result="effect1_dropShadow"/>
<feColorMatrix in="SourceAlpha" type="matrix" values="0 0 0 0 0 0 0 0 0 0 0 0 0 0 0 0 0 0 127 0"/>
<feOffset dy="2"/>
<feGaussianBlur stdDeviation="3"/>
<feColorMatrix type="matrix" values="0 0 0 0 0 0 0 0 0 0 0 0 0 0 0 0 0 0 0.04 0"/>
<feBlend mode="normal" in2="effect1_dropShadow" result="effect2_dropShadow"/>
<feColorMatrix in="SourceAlpha" type="matrix" values="0 0 0 0 0 0 0 0 0 0 0 0 0 0 0 0 0 0 127 0"/>
<feOffset dy="10"/>
<feGaussianBlur stdDeviation="10"/>
<feColorMatrix type="matrix" values="0 0 0 0 0 0 0 0 0 0 0 0 0 0 0 0 0 0 0.04 0"/>
<feBlend mode="normal" in2="effect2_dropShadow" result="effect3_dropShadow"/>
<feBlend mode="normal" in="SourceGraphic" in2="effect3_dropShadow" result="shape"/>
</filter>
</defs>
</svg>
