<svg width="124" height="15" viewBox="0 0 124 15" fill="none" xmlns="http://www.w3.org/2000/svg">
<path d="M0.0220001 6.044C0.0220001 5.69867 0.0873334 5.37667 0.218 5.078C0.348667 4.77933 0.526 4.518 0.75 4.294C0.974 4.07 1.23533 3.89267 1.534 3.762C1.83267 3.63133 2.15467 3.566 2.5 3.566C2.84533 3.566 3.16733 3.63133 3.466 3.762C3.76467 3.89267 4.026 4.07 4.25 4.294C4.474 4.518 4.65133 4.77933 4.782 5.078C4.91267 5.37667 4.978 5.69867 4.978 6.044C4.978 6.38933 4.91267 6.71133 4.782 7.01C4.65133 7.30867 4.474 7.57 4.25 7.794C4.026 8.018 3.76467 8.19533 3.466 8.326C3.16733 8.45667 2.84533 8.522 2.5 8.522C2.15467 8.522 1.83267 8.45667 1.534 8.326C1.23533 8.19533 0.974 8.018 0.75 7.794C0.526 7.57 0.348667 7.30867 0.218 7.01C0.0873334 6.71133 0.0220001 6.38933 0.0220001 6.044Z" fill="#FFA300"/>
<path d="M14.7346 1.088H16.2606L20.5306 11H18.5146L17.5906 8.732H13.2926L12.3966 11H10.4226L14.7346 1.088ZM16.9746 7.22L15.4486 3.188L13.8946 7.22H16.9746ZM21.6461 0.415999H23.3261V11H21.6461V0.415999ZM25.3948 4.28H26.9908V5.288H27.0188C27.2615 4.87733 27.5881 4.57867 27.9988 4.392C28.4095 4.20533 28.8528 4.112 29.3288 4.112C29.8421 4.112 30.3041 4.20533 30.7148 4.392C31.1255 4.56933 31.4755 4.81667 31.7648 5.134C32.0541 5.45133 32.2735 5.82467 32.4228 6.254C32.5721 6.68333 32.6468 7.14533 32.6468 7.64C32.6468 8.13467 32.5675 8.59667 32.4088 9.026C32.2501 9.45533 32.0261 9.82867 31.7368 10.146C31.4568 10.4633 31.1161 10.7153 30.7148 10.902C30.3135 11.0793 29.8748 11.168 29.3988 11.168C29.0815 11.168 28.8015 11.1353 28.5588 11.07C28.3161 11.0047 28.1015 10.9207 27.9148 10.818C27.7281 10.7153 27.5695 10.608 27.4388 10.496C27.3081 10.3747 27.2008 10.258 27.1168 10.146H27.0748V14.192H25.3948V4.28ZM30.9668 7.64C30.9668 7.37867 30.9201 7.12667 30.8268 6.884C30.7428 6.64133 30.6121 6.42667 30.4348 6.24C30.2668 6.05333 30.0615 5.904 29.8188 5.792C29.5761 5.68 29.3008 5.624 28.9928 5.624C28.6848 5.624 28.4095 5.68 28.1668 5.792C27.9241 5.904 27.7141 6.05333 27.5368 6.24C27.3688 6.42667 27.2381 6.64133 27.1448 6.884C27.0608 7.12667 27.0188 7.37867 27.0188 7.64C27.0188 7.90133 27.0608 8.15333 27.1448 8.396C27.2381 8.63867 27.3688 8.85333 27.5368 9.04C27.7141 9.22667 27.9241 9.376 28.1668 9.488C28.4095 9.6 28.6848 9.656 28.9928 9.656C29.3008 9.656 29.5761 9.6 29.8188 9.488C30.0615 9.376 30.2668 9.22667 30.4348 9.04C30.6121 8.85333 30.7428 8.63867 30.8268 8.396C30.9201 8.15333 30.9668 7.90133 30.9668 7.64ZM36.0332 5.218H36.0612C36.1918 4.938 36.4205 4.686 36.7472 4.462C37.0832 4.22867 37.5125 4.112 38.0352 4.112C38.4832 4.112 38.8612 4.18667 39.1692 4.336C39.4865 4.48533 39.7432 4.68133 39.9392 4.924C40.1352 5.16667 40.2752 5.44667 40.3592 5.764C40.4432 6.08133 40.4852 6.41267 40.4852 6.758V11H38.8052V7.598C38.8052 7.41133 38.7958 7.206 38.7772 6.982C38.7585 6.74867 38.7072 6.534 38.6232 6.338C38.5485 6.13267 38.4272 5.96467 38.2592 5.834C38.0912 5.694 37.8625 5.624 37.5732 5.624C37.2932 5.624 37.0552 5.67067 36.8592 5.764C36.6725 5.85733 36.5138 5.98333 36.3832 6.142C36.2618 6.30067 36.1732 6.48267 36.1172 6.688C36.0612 6.89333 36.0332 7.108 36.0332 7.332V11H34.3532V0.415999H36.0332V5.218ZM46.7322 10.076H46.6902C46.4476 10.4587 46.1396 10.7387 45.7662 10.916C45.3929 11.084 44.9822 11.168 44.5342 11.168C44.2262 11.168 43.9229 11.126 43.6242 11.042C43.3349 10.958 43.0736 10.832 42.8402 10.664C42.6162 10.496 42.4342 10.286 42.2942 10.034C42.1542 9.782 42.0842 9.488 42.0842 9.152C42.0842 8.788 42.1496 8.48 42.2802 8.228C42.4109 7.96667 42.5836 7.752 42.7982 7.584C43.0222 7.40667 43.2789 7.26667 43.5682 7.164C43.8576 7.06133 44.1562 6.98667 44.4642 6.94C44.7816 6.884 45.0989 6.85133 45.4162 6.842C45.7336 6.82333 46.0322 6.814 46.3122 6.814H46.7322V6.632C46.7322 6.212 46.5876 5.89933 46.2982 5.694C46.0089 5.47933 45.6402 5.372 45.1922 5.372C44.8376 5.372 44.5062 5.43733 44.1982 5.568C43.8902 5.68933 43.6242 5.85733 43.4002 6.072L42.5182 5.19C42.8916 4.80733 43.3256 4.532 43.8202 4.364C44.3242 4.196 44.8422 4.112 45.3742 4.112C45.8502 4.112 46.2516 4.168 46.5782 4.28C46.9049 4.38267 47.1756 4.518 47.3902 4.686C47.6049 4.854 47.7682 5.05 47.8802 5.274C48.0016 5.48867 48.0856 5.708 48.1322 5.932C48.1882 6.156 48.2209 6.37533 48.2302 6.59C48.2396 6.79533 48.2442 6.97733 48.2442 7.136V11H46.7322V10.076ZM46.6342 7.99H46.2842C46.0509 7.99 45.7896 7.99933 45.5002 8.018C45.2109 8.03667 44.9356 8.08333 44.6742 8.158C44.4222 8.22333 44.2076 8.326 44.0302 8.466C43.8529 8.59667 43.7642 8.78333 43.7642 9.026C43.7642 9.18467 43.7969 9.32 43.8622 9.432C43.9369 9.53467 44.0302 9.62333 44.1422 9.698C44.2542 9.77267 44.3802 9.82867 44.5202 9.866C44.6602 9.894 44.8002 9.908 44.9402 9.908C45.5189 9.908 45.9436 9.77267 46.2142 9.502C46.4942 9.222 46.6342 8.844 46.6342 8.368V7.99ZM54.6283 1.088H58.4923C58.8657 1.088 59.2343 1.13467 59.5983 1.228C59.9623 1.312 60.2843 1.45667 60.5643 1.662C60.8537 1.858 61.087 2.11467 61.2643 2.432C61.4417 2.74933 61.5303 3.132 61.5303 3.58C61.5303 4.14 61.3717 4.602 61.0543 4.966C60.737 5.33 60.3217 5.59133 59.8083 5.75V5.778C60.1163 5.81533 60.401 5.904 60.6623 6.044C60.933 6.17467 61.1617 6.34733 61.3483 6.562C61.535 6.76733 61.6797 7.01 61.7823 7.29C61.8943 7.56067 61.9503 7.85467 61.9503 8.172C61.9503 8.71333 61.843 9.166 61.6283 9.53C61.4137 9.88467 61.129 10.174 60.7743 10.398C60.429 10.6127 60.0277 10.7667 59.5703 10.86C59.1223 10.9533 58.665 11 58.1983 11H54.6283V1.088ZM56.3923 5.12H58.0023C58.5903 5.12 59.029 5.008 59.3183 4.784C59.617 4.55067 59.7663 4.24733 59.7663 3.874C59.7663 3.44467 59.6123 3.12733 59.3043 2.922C59.0057 2.70733 58.5203 2.6 57.8483 2.6H56.3923V5.12ZM56.3923 9.488H58.0163C58.2403 9.488 58.4783 9.474 58.7303 9.446C58.9917 9.418 59.2297 9.35267 59.4443 9.25C59.659 9.14733 59.8363 9.00267 59.9763 8.816C60.1163 8.62 60.1863 8.35867 60.1863 8.032C60.1863 7.50933 60.0137 7.14533 59.6683 6.94C59.3323 6.73467 58.805 6.632 58.0863 6.632H56.3923V9.488ZM65.0365 8.228C65.0925 8.732 65.2885 9.124 65.6245 9.404C65.9605 9.684 66.3665 9.824 66.8425 9.824C67.2625 9.824 67.6125 9.74 67.8925 9.572C68.1818 9.39467 68.4338 9.17533 68.6485 8.914L69.8525 9.824C69.4605 10.3093 69.0218 10.6547 68.5365 10.86C68.0511 11.0653 67.5425 11.168 67.0105 11.168C66.5065 11.168 66.0305 11.084 65.5825 10.916C65.1345 10.748 64.7471 10.51 64.4205 10.202C64.0938 9.894 63.8325 9.52533 63.6365 9.096C63.4498 8.65733 63.3565 8.172 63.3565 7.64C63.3565 7.108 63.4498 6.62733 63.6365 6.198C63.8325 5.75933 64.0938 5.386 64.4205 5.078C64.7471 4.77 65.1345 4.532 65.5825 4.364C66.0305 4.196 66.5065 4.112 67.0105 4.112C67.4771 4.112 67.9018 4.196 68.2845 4.364C68.6765 4.52267 69.0078 4.756 69.2785 5.064C69.5585 5.372 69.7731 5.75467 69.9225 6.212C70.0811 6.66 70.1605 7.178 70.1605 7.766V8.228H65.0365ZM68.4805 6.968C68.4711 6.47333 68.3171 6.086 68.0185 5.806C67.7198 5.51667 67.3045 5.372 66.7725 5.372C66.2685 5.372 65.8671 5.51667 65.5685 5.806C65.2791 6.09533 65.1018 6.48267 65.0365 6.968H68.4805ZM71.0875 5.708V4.28H72.4735V2.334H74.1535V4.28H76.0015V5.708H74.1535V8.648C74.1535 8.984 74.2142 9.25 74.3355 9.446C74.4662 9.642 74.7182 9.74 75.0915 9.74C75.2409 9.74 75.4042 9.726 75.5815 9.698C75.7589 9.66067 75.8989 9.60467 76.0015 9.53V10.944C75.8242 11.028 75.6049 11.084 75.3435 11.112C75.0915 11.1493 74.8675 11.168 74.6715 11.168C74.2235 11.168 73.8549 11.1167 73.5655 11.014C73.2855 10.9207 73.0615 10.776 72.8935 10.58C72.7349 10.3747 72.6229 10.1227 72.5575 9.824C72.5015 9.52533 72.4735 9.18 72.4735 8.788V5.708H71.0875ZM81.6529 10.076H81.6109C81.3683 10.4587 81.0603 10.7387 80.6869 10.916C80.3136 11.084 79.9029 11.168 79.4549 11.168C79.1469 11.168 78.8436 11.126 78.5449 11.042C78.2556 10.958 77.9943 10.832 77.7609 10.664C77.5369 10.496 77.3549 10.286 77.2149 10.034C77.0749 9.782 77.0049 9.488 77.0049 9.152C77.0049 8.788 77.0703 8.48 77.2009 8.228C77.3316 7.96667 77.5043 7.752 77.7189 7.584C77.9429 7.40667 78.1996 7.26667 78.4889 7.164C78.7783 7.06133 79.0769 6.98667 79.3849 6.94C79.7023 6.884 80.0196 6.85133 80.3369 6.842C80.6543 6.82333 80.9529 6.814 81.2329 6.814H81.6529V6.632C81.6529 6.212 81.5083 5.89933 81.2189 5.694C80.9296 5.47933 80.5609 5.372 80.1129 5.372C79.7583 5.372 79.4269 5.43733 79.1189 5.568C78.8109 5.68933 78.5449 5.85733 78.3209 6.072L77.4389 5.19C77.8123 4.80733 78.2463 4.532 78.7409 4.364C79.2449 4.196 79.7629 4.112 80.2949 4.112C80.7709 4.112 81.1723 4.168 81.4989 4.28C81.8256 4.38267 82.0963 4.518 82.3109 4.686C82.5256 4.854 82.6889 5.05 82.8009 5.274C82.9223 5.48867 83.0063 5.708 83.0529 5.932C83.1089 6.156 83.1416 6.37533 83.1509 6.59C83.1603 6.79533 83.1649 6.97733 83.1649 7.136V11H81.6529V10.076ZM81.5549 7.99H81.2049C80.9716 7.99 80.7103 7.99933 80.4209 8.018C80.1316 8.03667 79.8563 8.08333 79.5949 8.158C79.3429 8.22333 79.1283 8.326 78.9509 8.466C78.7736 8.59667 78.6849 8.78333 78.6849 9.026C78.6849 9.18467 78.7176 9.32 78.7829 9.432C78.8576 9.53467 78.9509 9.62333 79.0629 9.698C79.1749 9.77267 79.3009 9.82867 79.4409 9.866C79.5809 9.894 79.7209 9.908 79.8609 9.908C80.4396 9.908 80.8643 9.77267 81.1349 9.502C81.4149 9.222 81.5549 8.844 81.5549 8.368V7.99ZM98.355 10.272C97.1324 10.9253 95.765 11.252 94.253 11.252C93.4877 11.252 92.783 11.1307 92.139 10.888C91.5044 10.636 90.9537 10.286 90.487 9.838C90.0297 9.38067 89.6704 8.83467 89.409 8.2C89.1477 7.56533 89.017 6.86067 89.017 6.086C89.017 5.29267 89.1477 4.574 89.409 3.93C89.6704 3.27667 90.0297 2.72133 90.487 2.264C90.9537 1.80667 91.5044 1.45667 92.139 1.214C92.783 0.962 93.4877 0.836 94.253 0.836C95.009 0.836 95.7184 0.929333 96.381 1.116C97.0437 1.29333 97.6364 1.61533 98.159 2.082L96.857 3.398C96.5397 3.09 96.1524 2.852 95.695 2.684C95.247 2.516 94.771 2.432 94.267 2.432C93.7537 2.432 93.287 2.52533 92.867 2.712C92.4564 2.88933 92.1017 3.14133 91.803 3.468C91.5044 3.78533 91.271 4.15867 91.103 4.588C90.9444 5.01733 90.865 5.47933 90.865 5.974C90.865 6.506 90.9444 6.996 91.103 7.444C91.271 7.892 91.5044 8.27933 91.803 8.606C92.1017 8.93267 92.4564 9.18933 92.867 9.376C93.287 9.56267 93.7537 9.656 94.267 9.656C94.715 9.656 95.135 9.614 95.527 9.53C95.9284 9.446 96.283 9.31533 96.591 9.138V6.8H94.561V5.204H98.355V10.272ZM100.46 0.415999H102.14V11H100.46V0.415999ZM103.872 7.64C103.872 7.108 103.966 6.62733 104.152 6.198C104.348 5.75933 104.61 5.386 104.936 5.078C105.263 4.77 105.65 4.532 106.098 4.364C106.546 4.196 107.022 4.112 107.526 4.112C108.03 4.112 108.506 4.196 108.954 4.364C109.402 4.532 109.79 4.77 110.116 5.078C110.443 5.386 110.7 5.75933 110.886 6.198C111.082 6.62733 111.18 7.108 111.18 7.64C111.18 8.172 111.082 8.65733 110.886 9.096C110.7 9.52533 110.443 9.894 110.116 10.202C109.79 10.51 109.402 10.748 108.954 10.916C108.506 11.084 108.03 11.168 107.526 11.168C107.022 11.168 106.546 11.084 106.098 10.916C105.65 10.748 105.263 10.51 104.936 10.202C104.61 9.894 104.348 9.52533 104.152 9.096C103.966 8.65733 103.872 8.172 103.872 7.64ZM105.552 7.64C105.552 7.90133 105.594 8.15333 105.678 8.396C105.772 8.63867 105.902 8.85333 106.07 9.04C106.248 9.22667 106.458 9.376 106.7 9.488C106.943 9.6 107.218 9.656 107.526 9.656C107.834 9.656 108.11 9.6 108.352 9.488C108.595 9.376 108.8 9.22667 108.968 9.04C109.146 8.85333 109.276 8.63867 109.36 8.396C109.454 8.15333 109.5 7.90133 109.5 7.64C109.5 7.37867 109.454 7.12667 109.36 6.884C109.276 6.64133 109.146 6.42667 108.968 6.24C108.8 6.05333 108.595 5.904 108.352 5.792C108.11 5.68 107.834 5.624 107.526 5.624C107.218 5.624 106.943 5.68 106.7 5.792C106.458 5.904 106.248 6.05333 106.07 6.24C105.902 6.42667 105.772 6.64133 105.678 6.884C105.594 7.12667 105.552 7.37867 105.552 7.64ZM111.983 4.28H113.803L115.259 8.984H115.287L116.645 4.28H118.465L119.921 8.984H119.949L121.349 4.28H123.043L120.761 11H119.095L117.499 6.408H117.471L116.057 11H114.321L111.983 4.28Z" fill="#3A3D3F"/>
</svg>
